<svg xmlns="http://www.w3.org/2000/svg" version="1.1" xmlns:xlink="http://www.w3.org/1999/xlink" xmlns:svgjs="http://svgjs.dev/svgjs" width="1500" height="935" viewBox="0 0 1500 935"><g transform="matrix(1,0,0,1,-0.9090909090909918,-0.4632815931252594)"><svg viewBox="0 0 396 247" data-background-color="#5081f5" preserveAspectRatio="xMidYMid meet" height="935" width="1500" xmlns="http://www.w3.org/2000/svg" xmlns:xlink="http://www.w3.org/1999/xlink"><g id="tight-bounds" transform="matrix(1,0,0,1,0.2400000000000091,0.12238561871865272)"><svg viewBox="0 0 395.52 246.7552287625627" height="246.7552287625627" width="395.52"><g><svg viewBox="0 0 395.52 246.7552287625627" height="246.7552287625627" width="395.52"><g><svg viewBox="0 0 395.52 246.7552287625627" height="246.7552287625627" width="395.52"><g><svg viewBox="0 0 395.52 246.7552287625627" height="246.7552287625627" width="395.52"><g transform="matrix(1,0,0,1,0,183.31411455643456)"><svg viewBox="0 0 395.52 63.44111420612814" height="63.44111420612814" width="395.52"><g id="textblocktransform"><svg viewBox="0 0 395.52 63.44111420612814" height="63.44111420612814" width="395.52" id="textblock"><g><svg viewBox="0 0 395.52 63.44111420612814" height="63.44111420612814" width="395.52"><g transform="matrix(1,0,0,1,0,0)"><svg width="395.52" viewBox="2.65 -34.2 215.39 34.550000000000004" height="63.44111420612814" data-palette-color="#ffffff"><path d="M31.95-4.15L31.95-13.2Q31.95-16 29.7-16L29.7-16Q28.7-16 28.2-14.85 27.7-13.7 27.7-11.95L27.7-11.95Q27.7-9.3 27.63-7.55 27.55-5.8 27.3-4.4 27.05-3 26.7-2.2 26.35-1.4 25.75-0.88 25.15-0.35 24.4-0.18 23.65 0 22.5 0L22.5 0Q20.75 0 19.68-0.5 18.6-1 18.15-1.9 17.7-2.8 17.7-4.15L17.7-4.15 17.7-13.2Q17.7-16 15.45-16L15.45-16Q14.55-16 13.98-14.98 13.4-13.95 13.4-12.3L13.4-12.3 13.4-5.35Q13.4-2.35 12.15-1.18 10.9 0 7.75 0L7.75 0Q4.8 0 3.73-1.38 2.65-2.75 2.65-5.9L2.65-5.9 2.65-18.2Q2.65-20.75 4.03-22.3 5.4-23.85 7.7-23.85L7.7-23.85Q11.8-23.85 12.9-21.2L12.9-21.2Q14.8-22.6 16.63-23.15 18.45-23.7 20.9-23.7L20.9-23.7Q24.6-23.7 26.25-20.5L26.25-20.5Q26.5-20.7 26.75-20.9L26.75-20.9Q30.6-23.7 36.2-23.7L36.2-23.7Q39.75-23.7 41.3-21 42.85-18.3 42.85-11.95L42.85-11.95Q42.85-9.3 42.78-7.55 42.7-5.8 42.45-4.4 42.2-3 41.83-2.2 41.45-1.4 40.78-0.88 40.1-0.35 39.28-0.18 38.45 0 37.2 0L37.2 0Q35.3 0 34.13-0.5 32.95-1 32.45-1.9 31.95-2.8 31.95-4.15L31.95-4.15ZM61.3 0.3L61.3 0.3Q55.2 0.3 51.22-2.85 47.25-6 47.25-11.45L47.25-11.45Q47.25-17.35 51.17-20.78 55.1-24.2 61.3-24.2L61.3-24.2Q67.15-24.2 69.87-22.13 72.6-20.05 72.6-16.45L72.6-16.45Q72.6-15.75 72.42-15.1 72.25-14.45 71.87-13.83 71.5-13.2 70.87-12.68 70.25-12.15 69.45-11.73 68.65-11.3 67.55-11.08 66.45-10.85 65.2-10.85L65.2-10.85 58.15-10.8Q58.65-9.2 59.95-8.28 61.25-7.35 63.25-7.35L63.25-7.35Q65.4-7.35 67.65-7.9L67.65-7.9Q68.6-8.15 69.72-8.7 70.85-9.25 71.35-9.25L71.35-9.25Q72.2-9.25 72.67-8.75 73.15-8.25 73.15-7.5L73.15-7.5Q73.15-6.6 72.35-5.33 71.55-4.05 70.12-2.78 68.7-1.5 66.35-0.6 64 0.3 61.3 0.3ZM57.9-14L57.9-14Q61.35-14.05 61.65-14.05L61.65-14.05Q62.4-14.05 62.75-14.95L62.75-14.95Q63-15.6 63-16.75L63-16.75Q63-19.9 61.1-19.9L61.1-19.9Q60.4-19.9 59.72-19.15 59.05-18.4 58.55-17.03 58.05-15.65 57.9-14ZM88.05-15.4L88.05-5.35Q88.05-2.35 86.8-1.18 85.55 0 82.34 0L82.34 0Q79.4 0 78.34-1.38 77.3-2.75 77.3-5.9L77.3-5.9 77.3-18.2Q77.3-19.9 77.9-21.18 78.5-22.45 79.65-23.15 80.8-23.85 82.34-23.85L82.34-23.85Q86.15-23.85 87.34-21.65L87.34-21.65Q90.25-23.85 92.95-23.85L92.95-23.85Q98.2-23.85 98.2-18.85L98.2-18.85Q98.2-16.85 97.05-15.6 95.9-14.35 94.05-14.35L94.05-14.35Q92.95-14.35 92.27-14.8 91.59-15.25 91.02-15.7 90.45-16.15 89.7-16.15L89.7-16.15Q88.59-16.15 88.05-15.4L88.05-15.4ZM116.04-11.85L116.04-11.85Q116.04-14.45 115.39-16.43 114.74-18.4 113.49-18.4L113.49-18.4Q112.64-18.4 111.99-17.4 111.34-16.4 111.04-14.95 110.74-13.5 110.74-11.85L110.74-11.85Q110.74-9.3 111.44-7.38 112.14-5.45 113.44-5.45 114.74-5.45 115.39-7.35 116.04-9.25 116.04-11.85ZM113.44 0.35L113.44 0.35Q109.54 0.35 106.42-1.05 103.29-2.45 101.42-5.25 99.54-8.05 99.54-11.8L99.54-11.8Q99.54-17.5 103.44-20.85 107.34-24.2 113.44-24.2 119.54-24.2 123.39-20.85 127.24-17.5 127.24-11.8L127.24-11.8Q127.24-6.15 123.32-2.9 119.39 0.35 113.44 0.35ZM142.49-28.65L142.49-21.8Q145.79-24.25 149.64-24.25L149.64-24.25Q153.54-24.25 156.14-20.95 158.74-17.65 158.74-12.6L158.74-12.6Q158.74-6.5 154.79-3.08 150.84 0.35 144.54 0.35L144.54 0.35Q140.69 0.35 137.82-0.75 134.94-1.85 133.32-4.05 131.69-6.25 131.64-9.35L131.64-9.35 131.54-28.2Q131.54-31.3 133.04-32.75 134.54-34.2 137.04-34.2L137.04-34.2Q139.84-34.2 141.17-32.88 142.49-31.55 142.49-28.65L142.49-28.65ZM142.54-7.65L142.54-7.65Q143.44-5.95 145.04-5.95L145.04-5.95Q146.39-5.95 147.14-7.65 147.89-9.35 147.89-11.55L147.89-11.55Q147.89-12.75 147.69-13.9 147.49-15.05 147.14-15.98 146.79-16.9 146.24-17.48 145.69-18.05 144.99-18.05L144.99-18.05Q143.44-18.05 142.54-16.2L142.54-16.2Q142.54-15.55 142.54-12.48 142.54-9.4 142.54-7.65ZM173.79-19.7L173.84-10.55Q173.84-7.7 176.04-7.7L176.04-7.7Q176.79-7.7 177.36-8.18 177.94-8.65 178.24-9.5 178.54-10.35 178.54-11.45L178.54-11.45 178.54-18.15Q178.54-19.85 179.14-21.13 179.74-22.4 180.89-23.1 182.04-23.8 183.59-23.8L183.59-23.8Q186.29-23.8 187.79-22.63 189.29-21.45 189.29-18.3L189.29-18.3 189.29-5.3Q189.29-2.25 188.04-1.1 186.79 0.05 183.64 0.05L183.64 0.05Q182.29 0.05 181.34-0.23 180.39-0.5 179.81-1.05 179.24-1.6 178.94-2.5L178.94-2.5Q176.89-1.15 174.61-0.6 172.34-0.05 169.54-0.05L169.54-0.05Q165.99-0.05 164.44-2.83 162.89-5.6 162.89-11.95L162.89-11.95Q162.89-15.1 163.04-17.07 163.19-19.05 163.51-20.48 163.84-21.9 164.51-22.6 165.19-23.3 166.11-23.6 167.04-23.9 168.54-23.9L168.54-23.9Q171.34-23.9 172.56-22.85 173.79-21.8 173.79-19.7L173.79-19.7ZM205.89-24.2L205.89-24.2Q210.54-24.2 213.64-22.3 216.74-20.4 216.74-18.15L216.74-18.15Q216.74-17.5 216.19-16.95 215.64-16.4 214.79-16.4L214.79-16.4Q214.04-16.4 213.14-16.93 212.24-17.45 211.44-18.05 210.64-18.65 209.34-19.15 208.04-19.65 206.59-19.65L206.59-19.65Q204.64-19.65 204.64-18.45L204.64-18.45Q204.64-17.6 205.64-17.1 206.64-16.6 208.56-16.05 210.49-15.5 211.49-15L211.49-15Q215.24-13.55 216.64-11.88 218.04-10.2 218.04-7.45L218.04-7.45Q218.04-6.1 217.29-4.78 216.54-3.45 215.04-2.27 213.54-1.1 210.96-0.38 208.39 0.35 205.09 0.35L205.09 0.35Q198.64 0.35 195.44-2.6L195.44-2.6Q193.89-4.05 193.89-5.6L193.89-5.6Q193.89-6.55 194.51-7.1 195.14-7.65 196.29-7.65L196.29-7.65Q197.44-7.65 199.79-6.53 202.14-5.4 204.14-5.4L204.14-5.4Q206.89-5.4 206.89-6.75L206.89-6.75Q206.89-7.45 205.44-7.88 203.99-8.3 201.64-8.9 199.29-9.5 197.89-10.4L197.89-10.4Q195.69-11.35 194.81-12.78 193.94-14.2 193.94-16.25L193.94-16.25Q193.94-19.75 197.26-21.98 200.59-24.2 205.89-24.2Z" opacity="1" transform="matrix(1,0,0,1,0,0)" fill="#ffffff" class="wordmark-text-0" data-fill-palette-color="primary" id="text-0"></path></svg></g></svg></g></svg></g></svg></g><g transform="matrix(1,0,0,1,114.40983303229491,0)"><svg viewBox="0 0 166.70033393541016 168.33719007910867" height="168.33719007910867" width="166.70033393541016"><g><svg xmlns="http://www.w3.org/2000/svg" xmlns:xlink="http://www.w3.org/1999/xlink" version="1.1" x="0" y="0" viewBox="0.4847272494320391 0 99.02763248992734 100" enable-background="new 0 0 100 100" xml:space="preserve" height="168.33719007910867" width="166.70033393541016" class="icon-icon-0" data-fill-palette-color="accent" id="icon-0"><path d="M32.063 78.226c-2.024 0-3.661 1.64-3.661 3.664 0 2.021 1.636 3.66 3.661 3.66 2.023 0 3.66-1.64 3.66-3.66C35.722 79.865 34.086 78.226 32.063 78.226" fill="#000000" data-fill-palette-color="accent"></path><path d="M23.109 79.005c-1.593 0-2.881 1.292-2.881 2.881 0 1.593 1.289 2.882 2.881 2.882 1.589 0 2.877-1.289 2.877-2.882C25.986 80.297 24.698 79.005 23.109 79.005" fill="#000000" data-fill-palette-color="accent"></path><path d="M67.938 85.55c2.024 0 3.665-1.64 3.665-3.664 0-2.021-1.641-3.66-3.665-3.66-2.02 0-3.66 1.64-3.66 3.66C64.277 83.91 65.918 85.55 67.938 85.55" fill="#000000" data-fill-palette-color="accent"></path><path d="M76.896 84.768c1.589 0 2.881-1.289 2.881-2.878 0-1.593-1.292-2.885-2.881-2.885-1.594 0-2.881 1.292-2.881 2.885C74.015 83.479 75.302 84.768 76.896 84.768" fill="#000000" data-fill-palette-color="accent"></path><path d="M96.306 16.556c-0.682-2.45-2.797-4.162-5.133-4.162-0.208 0-0.411 0.03-0.614 0.058-0.044-0.325-0.079-0.65-0.126-0.975-0.207-1.535-1.397-2.755-2.929-2.999-1.3-0.207-2.606-0.403-3.906-0.591C77.987 3.952 64.826 0 50 0h-0.122-0.109C34.948 0 21.782 3.952 16.175 7.887c-1.308 0.188-2.618 0.386-3.911 0.591-1.531 0.244-2.721 1.464-2.928 2.999-0.043 0.317-0.078 0.634-0.121 0.953-0.129-0.01-0.255-0.036-0.388-0.036-2.337 0-4.447 1.712-5.133 4.162-2.149 7.688-3.229 15.665-3.209 23.715 0.003 3.308 2.411 6.001 5.367 6.001h0.07c0.349-0.004 0.701-0.016 1.05-0.02-0.02 13.605 1.01 27.221 3.108 40.734 0.227 1.473 1.362 2.643 2.83 2.918 1.061 0.195 2.125 0.376 3.187 0.556v6.26c0 1.813 1.468 3.28 3.281 3.28h5.743c1.809 0 3.281-1.467 3.281-3.28v-4.553c7.172 0.775 14.355 1.179 21.484 1.179 7.204 0 14.461-0.411 21.716-1.203v4.577c0 1.813 1.468 3.28 3.28 3.28h5.738c1.813 0 3.282-1.467 3.282-3.28v-6.299c0.986-0.169 1.972-0.333 2.956-0.517 1.468-0.275 2.602-1.445 2.829-2.918 2.1-13.514 3.129-27.129 3.108-40.738 0.427 0.008 0.857 0.02 1.28 0.023h0.07c2.956 0 5.364-2.693 5.367-6.001C99.535 32.221 98.455 24.243 96.306 16.556M12.82 11.95c1.578-0.253 3.16-0.487 4.741-0.709 4.205-3.452 17.131-7.726 32.208-7.726h0.117H50c15.072 0 28.007 4.273 32.207 7.726 1.582 0.222 3.164 0.456 4.745 0.709 0.071 0.524 0.129 1.053 0.2 1.579-0.627 0.222-1.246 0.448-1.872 0.664-0.959 0.341-1.761 0.93-2.372 1.67-9.595-3.709-20.902-5.859-33.022-5.859-12.05 0-23.289 2.126-32.849 5.795-0.604-0.709-1.386-1.276-2.318-1.605-0.701-0.242-1.394-0.495-2.09-0.744C12.695 12.95 12.75 12.451 12.82 11.95M16.978 24.2h66.043l0.415 2.606c-0.09 0.02-0.18 0.029-0.273 0.029H16.837c-0.093 0-0.184-0.01-0.274-0.029L16.978 24.2zM10.362 42.674c-1.488 0.043-2.979 0.066-4.486 0.082H5.853C4.979 42.756 4 41.69 4 40.262c-0.016-7.726 1.018-15.385 3.081-22.76 0.263-0.937 0.979-1.593 1.747-1.593 0.157 0 0.313 0.03 0.477 0.091 1.421 0.519 2.843 1.023 4.256 1.509 0.959 0.341 1.496 1.397 1.217 2.404-1.848 6.71-2.76 13.672-2.705 20.698C12.081 41.715 11.305 42.643 10.362 42.674M86.217 86.446c-12.113 2.256-24.223 3.384-36.331 3.384-12.112 0-24.221-1.128-36.333-3.384-0.795-5.132-1.429-10.263-1.918-15.396h6.636c1.667 0 3.762-1.064 4.419-2.624 1.472-3.495-1.312-8.632-2.888-11.627-2.071-3.926-4.452-7.705-6.28-11.753 1.061-0.855 1.793-2.122 2-3.578 6.91 15.915 20.984 29.582 34.615 29.582 16.474 0 33.166-7.066 38.733-9.653C88.393 69.746 87.512 78.097 86.217 86.446M94.147 42.756h-0.019c-1.512-0.016-3.004-0.039-4.492-0.082-0.942-0.031-1.714-0.959-1.709-2.063 0.055-7.026-0.858-13.988-2.706-20.698-0.274-1.007 0.259-2.063 1.218-2.404 1.413-0.485 2.838-0.99 4.26-1.509 0.16-0.061 0.316-0.091 0.474-0.091 0.768 0 1.488 0.656 1.746 1.593 2.063 7.375 3.101 15.034 3.08 22.76C95.999 41.69 95.021 42.756 94.147 42.756" fill="#000000" data-fill-palette-color="accent"></path></svg></g></svg></g><g></g></svg></g></svg></g></svg></g><defs></defs></svg><rect width="395.52" height="246.7552287625627" fill="none" stroke="none" visibility="hidden"></rect></g></svg></g></svg>