<?xml version="1.0" standalone="no"?>
<!DOCTYPE svg PUBLIC "-//W3C//DTD SVG 20010904//EN"
 "http://www.w3.org/TR/2001/REC-SVG-20010904/DTD/svg10.dtd">
<svg version="1.0" xmlns="http://www.w3.org/2000/svg"
 width="252.000000pt" height="250.000000pt" viewBox="0 0 252.000000 250.000000"
 preserveAspectRatio="xMidYMid meet">
<metadata>
Created by potrace 1.10, written by Peter Selinger 2001-2011
</metadata>
<g transform="translate(0.000000,250.000000) scale(0.100000,-0.100000)"
fill="#000000" stroke="none">
<path d="M1540 2171 c-213 -36 -383 -209 -413 -418 -49 -337 231 -617 568
-567 333 48 522 404 376 707 -34 71 -100 150 -159 191 -102 70 -256 106 -372
87z m177 -47 c2 -6 15 -9 28 -6 32 6 159 -66 213 -120 22 -21 49 -58 60 -81
64 -133 66 -140 65 -222 0 -109 -5 -145 -16 -145 -6 0 -8 -3 -5 -6 16 -15
-101 -204 -125 -204 -5 0 -18 -11 -30 -25 -31 -34 -121 -79 -189 -95 -36 -8
-84 -11 -130 -7 -74 6 -180 39 -186 57 -2 6 -12 10 -21 10 -25 0 -149 126
-172 175 -54 116 -73 253 -44 322 8 19 15 44 15 54 0 11 4 19 9 19 4 0 19 25
32 54 18 42 26 53 36 44 10 -8 9 -16 -7 -38 -11 -16 -20 -33 -20 -39 0 -6 -5
-11 -10 -11 -6 0 -9 -3 -8 -7 3 -10 -30 -122 -42 -144 -5 -10 -5 -20 1 -26 6
-6 12 -36 15 -69 2 -32 8 -62 14 -68 5 -5 10 -18 10 -27 0 -26 38 -84 92 -140
26 -27 45 -49 41 -49 -3 0 15 -11 41 -25 75 -40 166 -67 221 -66 66 1 185 22
185 33 0 4 8 8 18 8 10 0 37 16 59 35 23 19 46 35 52 35 6 0 11 6 11 14 0 8 7
16 15 19 18 8 62 77 82 131 29 77 39 148 31 211 -9 66 -51 176 -83 214 -39 48
-98 100 -126 112 -16 6 -29 15 -29 20 0 5 -6 9 -14 9 -8 0 -27 5 -43 11 -44
18 -63 21 -151 20 -117 0 -208 -37 -297 -119 -25 -23 -47 -37 -50 -31 -9 14 0
24 63 72 78 60 128 85 187 95 69 13 197 10 202 -4z m64 -76 c166 -77 270 -258
242 -422 -21 -123 -89 -230 -183 -290 -54 -35 -158 -66 -220 -66 -62 0 -165
31 -221 66 -43 27 -114 106 -139 155 -23 44 -50 147 -50 189 0 42 27 133 55
190 43 84 158 176 252 200 68 17 204 6 264 -22z"/>
<path d="M1586 2024 c-3 -9 -6 -74 -6 -144 0 -98 -3 -131 -14 -137 -18 -11
-36 -47 -36 -72 0 -35 48 -81 84 -81 18 0 37 5 43 11 7 7 23 2 54 -19 92 -61
106 -67 124 -52 30 25 13 52 -59 94 -38 23 -70 48 -72 57 -5 37 -16 60 -35 70
-18 9 -20 20 -18 139 0 71 -2 133 -6 139 -10 17 -52 13 -59 -5z m59 -344 c0
-18 -6 -26 -23 -28 -24 -4 -38 18 -28 44 3 9 15 14 28 12 17 -2 23 -10 23 -28z"/>
<path d="M705 2030 c-94 -23 -174 -86 -211 -165 l-24 -50 0 -550 0 -550 23
-37 c26 -43 63 -74 100 -83 26 -7 27 -10 27 -70 0 -87 11 -95 132 -95 116 0
128 8 128 93 l0 57 300 0 300 0 0 -58 c0 -82 14 -92 134 -92 91 0 95 1 116 28
18 22 21 36 17 74 l-6 46 47 24 c29 14 58 40 77 66 l30 44 3 229 3 230 -38
-19 c-91 -47 -151 -54 -488 -59 -318 -5 -583 6 -657 27 -50 14 -97 55 -119
105 -17 36 -19 69 -19 305 0 146 4 270 8 277 20 31 87 44 269 54 102 6 191 8
198 5 8 -3 27 24 49 70 21 41 41 74 45 74 5 0 11 7 15 15 5 13 -23 15 -212 14
-119 -1 -230 -4 -247 -9z m381 -31 c3 -5 -5 -28 -18 -52 l-23 -42 -139 -6
c-76 -4 -162 -10 -192 -14 -30 -3 -56 -6 -59 -5 -16 3 -85 -46 -94 -68 -8 -17
-12 -113 -12 -294 l0 -269 28 -52 c65 -121 147 -137 693 -138 345 -1 469 8
552 40 15 6 30 6 32 2 8 -13 8 -343 0 -377 -7 -31 -50 -84 -69 -84 -6 0 -25
-13 -43 -29 -27 -25 -32 -37 -32 -73 0 -24 -5 -49 -12 -56 -12 -12 -134 -17
-162 -6 -11 4 -16 19 -16 44 0 23 -8 48 -21 64 l-20 26 -295 0 c-281 0 -295
-1 -314 -20 -13 -13 -20 -33 -20 -59 0 -54 -15 -62 -107 -59 l-78 3 -8 40 c-5
22 -11 50 -13 63 -3 13 -23 34 -48 50 -25 15 -55 40 -68 57 l-23 29 -3 531
c-2 383 0 541 9 570 25 88 104 158 200 179 72 16 365 20 375 5z"/>
<path d="M640 923 c-33 -14 -70 -69 -70 -106 0 -77 69 -127 175 -127 100 0
155 36 155 101 0 75 -88 140 -189 138 -31 0 -63 -3 -71 -6z m144 -38 c47 -20
98 -73 94 -98 -5 -36 -50 -59 -125 -64 -60 -4 -72 -2 -103 19 -44 30 -58 66
-41 106 24 58 90 72 175 37z"/>
<path d="M1548 909 c-81 -41 -114 -131 -65 -177 31 -29 78 -42 152 -42 63 0
95 14 134 59 41 48 36 96 -16 152 -21 23 -32 26 -96 27 -52 0 -82 -5 -109 -19z
m183 -30 c23 -16 29 -28 29 -57 0 -48 -21 -77 -66 -92 -46 -16 -146 -7 -179
14 -56 37 -12 113 83 148 55 20 92 16 133 -13z"/>
</g>
</svg>
