<svg xmlns:xlink="http://www.w3.org/1999/xlink"
    xmlns="http://www.w3.org/2000/svg" width="176" height="144" viewBox="0 0 176 144" fill="none">
    <path d="M166.573 111.274C166.575 115.966 166.167 120.649 165.352 125.269C165.352 125.295 165.343 125.319 165.34 125.344C164.198 131.776 162.265 138.042 159.585 144H15.0361L14.951 143.81C10.3841 133.57 8.0319 122.483 8.04781 111.274C8.04781 67.3158 43.5349 31.6799 87.3102 31.6799C131.086 31.6799 166.573 67.3158 166.573 111.274Z" fill="white"/>
    <path d="M124.166 82.3105C127.208 82.3205 129.7 79.8828 129.78 76.819C129.858 73.7561 127.494 71.1908 124.457 71.0422C123.621 67.9694 120.761 65.9096 117.605 66.109C114.45 66.3084 111.866 68.7112 111.418 71.8658C110.986 71.8217 110.549 71.8738 110.139 72.0182C109.729 72.1626 109.356 72.3958 109.047 72.7013C108.736 73.008 108.496 73.3792 108.344 73.7888C108.191 74.1984 108.13 74.6365 108.165 75.0722C107.315 75.2894 106.573 75.8087 106.077 76.5332C105.581 77.2577 105.365 78.1381 105.469 79.0104C105.568 79.8826 105.981 80.6887 106.631 81.2778C107.281 81.8668 108.123 82.1985 108.999 82.2108L124.166 82.3105ZM44.8749 93.7652C47.3036 93.7752 49.2944 91.827 49.3571 89.3814C49.4198 86.9357 47.5326 84.8868 45.1068 84.7682C44.7877 83.5806 44.069 82.5399 43.0722 81.8218C42.0755 81.1037 40.8618 80.7523 39.6362 80.827C38.4102 80.9069 37.2492 81.408 36.3491 82.2457C35.449 83.0833 34.8648 84.2063 34.6952 85.4252C34.3498 85.39 34.001 85.4316 33.6735 85.547C33.3461 85.6625 33.0481 85.849 32.801 86.0932C32.5531 86.3381 32.3617 86.6345 32.2403 86.9614C32.1189 87.2883 32.0704 87.6379 32.0982 87.9855C31.4185 88.1574 30.8244 88.5712 30.427 89.1497C30.0295 89.7282 29.8558 90.4318 29.9383 91.1291C30.0172 91.8261 30.3473 92.4704 30.8666 92.941C31.386 93.4117 32.0589 93.6764 32.7592 93.6855L44.8749 93.7652ZM156.46 105.407C156.848 105.417 157.235 105.349 157.597 105.208C157.959 105.068 158.29 104.857 158.571 104.589C158.852 104.32 159.078 103.998 159.235 103.642C159.392 103.287 159.477 102.903 159.486 102.514C159.497 102.125 159.432 101.737 159.293 101.374C159.155 101.01 158.947 100.677 158.68 100.394C158.413 100.11 158.093 99.8828 157.739 99.7235C157.384 99.5642 157.002 99.4764 156.613 99.4652C156.403 98.6805 155.929 97.9927 155.27 97.5181C154.612 97.0436 153.81 96.8114 153.001 96.861C152.191 96.9139 151.425 97.2449 150.831 97.7981C150.237 98.3514 149.852 99.0931 149.74 99.8979C149.512 99.8737 149.281 99.9004 149.064 99.9763C148.847 100.052 148.65 100.175 148.486 100.337C148.322 100.498 148.195 100.694 148.115 100.91C148.034 101.127 148.002 101.358 148.021 101.588C147.572 101.701 147.179 101.974 146.917 102.356C146.654 102.738 146.54 103.203 146.595 103.664C146.647 104.124 146.866 104.549 147.209 104.859C147.553 105.17 147.998 105.344 148.46 105.349L156.46 105.408V105.407Z" fill="#F1F1F1"/>
    <path d="M171.573 123.469L171.012 123.418C143.65 121.012 116.301 131.644 88.9465 144H18.2577C69.1783 142.249 120.099 111.038 171.02 123.336L171.573 123.469Z" fill="#F1F1F1"/>
    <path d="M85.2407 68.2686H90.5994V136.537H85.2407V68.2686Z" fill="#7C6381"/>
    <path d="M90.48 77.7673V84.562C88.8518 84.6422 87.2208 84.6422 85.5927 84.562V77.7673H90.48Z" fill="#1A345B"/>
    <path d="M87.5836 77.7672C109.023 77.7672 126.403 60.3584 126.403 38.8836C126.403 17.4088 109.023 0 87.5836 0C66.144 0 48.7638 17.4088 48.7638 38.8836C48.7638 60.3584 66.144 77.7672 87.5836 77.7672Z" fill="#009DF8"/>
    <path d="M70.5556 33.711C71.4253 34.1715 72.1519 34.8627 72.6558 35.7091C73.1663 36.576 73.4287 37.567 73.4143 38.5735C73.4291 39.5897 73.1669 40.5908 72.6558 41.4688C72.155 42.3236 71.4282 43.0233 70.5556 43.4908C69.6285 43.9732 68.5992 44.225 67.5545 44.225C66.5098 44.225 65.4805 43.9732 64.5535 43.4908C63.6849 43.0214 62.9618 42.3219 62.4632 41.4688C61.9518 40.5909 61.6892 39.5898 61.7037 38.5735C61.6893 37.567 61.9517 36.576 62.4622 35.7091C62.9638 34.8644 63.6867 34.1735 64.5525 33.711C65.4811 33.2339 66.5098 32.9851 67.5535 32.9851C68.5972 32.9851 69.6269 33.2339 70.5556 33.711ZM66.2954 36.0431C65.8873 36.3053 65.5538 36.6702 65.3289 37.1019C65.0861 37.5603 64.9626 38.0726 64.9695 38.5914C64.9626 39.1133 65.0857 39.6288 65.3279 40.0909C65.5528 40.5276 65.8853 40.8975 66.2954 41.1647C66.6836 41.4259 67.1385 41.5645 67.6053 41.5635C68.0622 41.5635 68.5081 41.425 68.8844 41.1647C69.2805 40.8975 69.6 40.5306 69.8101 40.0989C70.039 39.6313 70.1545 39.1159 70.1465 38.5944C70.1535 38.0779 70.0382 37.5671 69.8101 37.1039C69.6009 36.6751 69.2813 36.31 68.8844 36.0461C68.5037 35.7909 68.0553 35.6561 67.5973 35.6592C67.1355 35.6592 66.6836 35.7918 66.2954 36.0431ZM82.756 33.711C83.6257 34.1715 84.3523 34.8627 84.8562 35.7091C85.3667 36.576 85.6291 37.567 85.6147 38.5735C85.6295 39.5897 85.3672 40.5908 84.8562 41.4688C84.3553 42.3236 83.6285 43.0233 82.756 43.4908C81.8292 43.973 80.8002 44.2247 79.7559 44.2247C78.7115 44.2247 77.6826 43.973 76.7558 43.4908C75.8863 43.0219 75.1624 42.3224 74.6635 41.4688C74.1525 40.5908 73.8903 39.5897 73.905 38.5735C73.8906 37.567 74.153 36.576 74.6635 35.7091C75.1655 34.864 75.8891 34.1729 76.7558 33.711C77.6842 33.2342 78.7126 32.9856 79.7559 32.9856C80.7992 32.9856 81.8275 33.2342 82.756 33.711ZM78.4957 36.0431C78.0876 36.3053 77.7542 36.6702 77.5292 37.1019C77.2865 37.5603 77.1629 38.0726 77.1699 38.5914C77.1632 39.1134 77.2867 39.6288 77.5292 40.0909C77.7532 40.5276 78.0866 40.8975 78.4947 41.1647C78.8829 41.425 79.3388 41.5635 79.8056 41.5635C80.2625 41.5635 80.7085 41.425 81.0847 41.1647C81.4809 40.8975 81.8004 40.5306 82.0104 40.0989C82.2393 39.6313 82.3548 39.1159 82.3468 38.5944C82.3538 38.0779 82.2385 37.5671 82.0104 37.1039C81.8012 36.6751 81.4817 36.31 81.0847 36.0461C80.7041 35.7909 80.2557 35.6561 79.7977 35.6592C79.3358 35.6592 78.8839 35.7918 78.4957 36.0431ZM94.9075 34.1906C95.669 34.8586 96.0492 35.8058 96.0492 37.0311C96.0492 38.3183 95.669 39.3173 94.9075 40.0271C94.1461 40.738 93.0701 41.0929 91.6805 41.0929L89.9943 41.1089V44.0122H86.8061V33.1866H91.6805C93.073 33.1866 94.1491 33.5206 94.9075 34.1906ZM92.6391 38.2365C92.9038 37.9793 93.0352 37.6084 93.0352 37.1238C93.0352 36.6512 92.9038 36.2883 92.6391 36.0371C92.3743 35.7848 92.007 35.6572 91.5272 35.6572H89.9943V38.6263H91.5272C92.009 38.6263 92.3813 38.4967 92.643 38.2365H92.6391ZM103.118 35.8108C102.434 35.5755 101.872 35.4568 101.433 35.4568C101.205 35.4442 100.978 35.5005 100.781 35.6183C100.704 35.6695 100.642 35.7399 100.6 35.8225C100.558 35.9052 100.539 35.9974 100.543 36.0899C100.543 36.3791 100.697 36.6034 101.003 36.7619C101.471 36.9793 101.959 37.1527 102.457 37.2784C103.095 37.4528 103.72 37.6722 104.327 37.9354C104.827 38.1647 105.266 38.5107 105.608 38.9464C105.97 39.401 106.15 39.9972 106.15 40.737C106.171 41.422 105.964 42.093 105.561 42.6453C105.15 43.1777 104.598 43.5825 103.967 43.8118C103.248 44.0774 102.486 44.2078 101.72 44.1967C100.778 44.1932 99.843 44.0342 98.9527 43.7261C98.0829 43.4428 97.2705 43.0062 96.5539 42.4369L97.7444 39.9972C98.3358 40.5021 99.0055 40.9069 99.7272 41.1956C100.51 41.5187 101.18 41.6802 101.743 41.6812C102.027 41.6981 102.31 41.6283 102.555 41.4808C102.649 41.419 102.725 41.3338 102.776 41.2337C102.827 41.1336 102.852 41.0219 102.847 40.9095C102.847 40.6104 102.687 40.3811 102.372 40.2216C101.898 40.0076 101.405 39.8396 100.899 39.7201C100.268 39.5622 99.6494 39.3583 99.0483 39.1099C98.5504 38.8933 98.1137 38.5566 97.7772 38.1298C97.4189 37.6861 97.2397 37.1059 97.2397 36.384C97.2255 35.7308 97.4193 35.09 97.7931 34.5545C98.1863 34.0131 98.7258 33.5974 99.3469 33.3551C100.092 33.0632 100.887 32.9215 101.686 32.9384C102.5 32.9396 103.31 33.0567 104.092 33.2863C104.827 33.49 105.529 33.799 106.176 34.2036L104.997 36.6762C104.401 36.3252 103.772 36.0353 103.118 35.8108ZM109.563 41.6333C109.837 41.9055 109.985 42.2814 109.972 42.6682C109.988 43.0621 109.84 43.4449 109.563 43.7231C109.288 44.0022 108.908 44.1508 108.517 44.1328C108.325 44.1399 108.133 44.1067 107.954 44.0355C107.775 43.9642 107.613 43.8565 107.478 43.7191C107.343 43.5811 107.237 43.4165 107.168 43.2357C107.098 43.0549 107.067 42.8617 107.076 42.6682C107.069 42.477 107.101 42.2864 107.171 42.1083C107.241 41.9302 107.347 41.7685 107.482 41.6333C107.759 41.3641 108.132 41.2196 108.517 41.2345C108.906 41.2186 109.284 41.3631 109.563 41.6333ZM110.047 33.2165V36.0281L109.511 40.1558H107.66L107.108 36.0281V33.2165H110.047ZM113.795 41.6333C114.068 41.9065 114.214 42.2814 114.201 42.6682C114.218 43.0621 114.072 43.4449 113.794 43.7231C113.517 44.0022 113.137 44.1508 112.747 44.1328C112.555 44.1392 112.365 44.1061 112.187 44.0356C112.009 43.9651 111.847 43.8587 111.712 43.7231C111.576 43.5836 111.47 43.418 111.401 43.2363C111.331 43.0547 111.299 42.8607 111.306 42.6662C111.299 42.475 111.332 42.2843 111.401 42.1061C111.471 41.9279 111.577 41.7659 111.712 41.6303C111.988 41.3611 112.362 41.2176 112.747 41.2315C113.135 41.2166 113.513 41.3611 113.795 41.6333ZM114.278 33.2165V36.0281L113.74 40.1558H111.891L111.337 36.0281V33.2165H114.278Z" fill="#FFF0E1"/>
</svg>