<svg width="149" height="125" viewBox="0 0 149 125" fill="none" xmlns="http://www.w3.org/2000/svg">
<path d="M92.4404 13.713C54.2456 17.0824 30.2908 28.189 20.975 47.2824C18.4464 52.3989 17.9141 55.6436 17.9141 65.3774C17.9141 75.3609 18.4464 78.1064 21.108 82.8485C24.5682 89.0882 27.7622 92.832 29.4923 92.832C31.4885 92.832 30.5569 89.8369 26.5644 82.3493C23.2374 76.2345 22.572 73.489 22.572 65.8766C22.572 38.7964 43.1998 23.8212 86.8509 19.0791C98.6953 17.8312 124.513 18.2055 126.11 19.8278C126.376 20.0774 124.247 22.9477 121.452 26.3171C113.334 35.427 111.072 39.67 104.551 57.6402C94.969 83.9717 90.178 90.9601 77.402 97.075C71.1471 100.07 59.1697 101.692 52.9148 100.444C48.6562 99.5708 47.5915 99.6956 46.9261 101.193C46.5268 102.191 46.9261 103.564 47.9908 104.188C51.0517 106.06 67.2878 105.436 74.075 103.315C90.4441 98.0733 99.2276 87.7155 107.079 64.5039C113.201 46.2841 119.589 34.6783 128.107 25.9427C131.833 22.0741 134.361 18.4551 133.962 17.4568C133.43 16.3336 130.236 15.4601 125.445 14.9609C112.802 13.8378 98.1629 13.2138 92.4404 13.713Z" fill="#8B8B8B"/>
<path d="M67.0202 54.3966C62.4954 58.7643 55.7082 66.1271 51.8488 70.9941C44.6623 80.104 29.4909 107.559 28.9585 112.675C28.2931 117.667 31.7533 117.168 34.0157 111.926C43.1984 90.5866 60.233 65.7528 72.8758 55.1453C78.3322 50.528 80.0623 46.6594 76.7352 46.6594C75.8036 46.6594 71.4119 50.1536 67.0202 54.3966Z" fill="#8B8B8B"/>
</svg>
