 <svg  version="1.0" xmlns="http://www.w3.org/2000/svg"  width="133.000000pt" height="121.000000pt" viewBox="0 0 133.000000 121.000000"  preserveAspectRatio="xMidYMid meet">  <g transform="translate(0.000000,121.000000) scale(0.100000,-0.100000)" fill="#8b8b8b" stroke="none"> <path d="M905 1044 c-287 -27 -467 -116 -537 -269 -19 -41 -23 -67 -23 -145 0 -80 4 -102 24 -140 26 -50 50 -80 63 -80 15 0 8 24 -22 84 -25 49 -30 71 -30 132 0 217 155 337 483 375 89 10 283 7 295 -6 2 -2 -14 -25 -35 -52 -61 -73 -78 -107 -127 -251 -72 -211 -108 -267 -204 -316 -47 -24 -137 -37 -184 -27 -32 7 -40 6 -45 -6 -3 -8 0 -19 8 -24 23 -15 145 -10 196 7 123 42 189 125 248 311 46 146 94 239 158 309 28 31 47 60 44 68 -4 9 -28 16 -64 20 -95 9 -205 14 -248 10z"/> <path d="M714 718 c-34 -35 -85 -94 -114 -133 -54 -73 -168 -293 -172 -334 -5 -40 21 -36 38 6 69 171 197 370 292 455 41 37 54 68 29 68 -7 0 -40 -28 -73 -62z"/> </g> </svg> 