 <svg  version="1.0" xmlns="http://www.w3.org/2000/svg"  width="178.000000pt" height="212.000000pt" viewBox="0 0 178.000000 212.000000"  preserveAspectRatio="xMidYMid meet">  <g transform="translate(0.000000,212.000000) scale(0.100000,-0.100000)" fill="#8b8b8b" stroke="none"> <path d="M224 1950 c-11 -4 -33 -22 -47 -40 l-27 -32 0 -485 c0 -449 2 -492 20 -585 36 -172 99 -299 218 -433 111 -127 297 -252 480 -324 l52 -21 68 26 c37 14 105 45 152 71 265 142 454 368 522 624 21 81 22 105 25 606 l4 521 -31 35 c-44 50 -64 52 -182 13 -151 -51 -256 -70 -353 -64 -86 6 -131 22 -177 66 l-27 25 -34 -30 c-19 -17 -56 -38 -81 -48 -93 -36 -328 -5 -490 65 -52 22 -61 23 -92 10z m99 -75 c115 -43 259 -67 377 -63 90 3 113 7 161 31 l56 27 58 -26 c111 -51 310 -41 522 27 112 36 128 32 139 -38 4 -26 4 -255 1 -508 -6 -518 -8 -535 -87 -701 -105 -226 -313 -410 -572 -508 l-64 -23 -94 41 c-298 131 -490 336 -586 626 l-28 85 -4 507 c-4 502 -3 507 17 527 26 26 25 26 104 -4z"/> <path d="M850 1235 c-8 -10 -11 -40 -8 -90 l3 -75 -80 0 c-50 0 -86 -5 -93 -12 -16 -16 -16 -110 0 -126 7 -7 43 -12 93 -12 l80 0 -3 -75 c-4 -64 -1 -79 14 -97 16 -17 27 -19 73 -15 29 3 56 9 59 12 4 4 7 44 7 91 l0 84 86 0 c98 0 99 1 99 80 0 64 -12 72 -107 69 l-78 -2 -1 81 c-1 44 -5 85 -8 91 -11 17 -121 14 -136 -4z m102 -89 c2 -37 11 -74 21 -90 16 -23 24 -26 77 -26 40 0 64 -5 74 -16 18 -18 18 -17 10 -38 -5 -12 -20 -16 -64 -16 -76 0 -110 -25 -110 -79 0 -21 -3 -53 -6 -70 -5 -26 -11 -31 -34 -31 -32 0 -40 18 -40 89 0 68 -27 91 -106 91 -67 0 -84 13 -64 51 9 15 22 19 67 19 78 0 103 23 103 96 0 70 7 84 40 84 27 0 28 -2 32 -64z"/> </g> </svg> 