 <svg  version="1.0" xmlns="http://www.w3.org/2000/svg"  width="300.000000pt" height="280.000000pt" viewBox="0 0 300.000000 280.000000"  preserveAspectRatio="xMidYMid meet">  <g transform="translate(0.000000,280.000000) scale(0.100000,-0.100000)" fill="#8b8b8b" stroke="none"> <path d="M1616 2701 c-146 -59 -223 -177 -214 -328 6 -118 76 -221 185 -274 39 -19 64 -23 138 -23 78 0 97 3 142 27 64 33 117 86 151 152 34 65 38 183 8 260 -26 66 -103 147 -169 175 -73 32 -177 37 -241 11z m172 -83 c64 -16 143 -94 161 -161 28 -100 -14 -206 -104 -262 -42 -26 -58 -30 -120 -30 -62 0 -78 4 -121 30 -30 19 -60 49 -79 79 -26 43 -30 59 -30 120 1 81 15 116 72 171 35 34 103 63 151 64 13 1 44 -4 70 -11z"/> <path d="M1359 2010 c-53 -28 -99 -78 -126 -137 -13 -28 -74 -227 -135 -442 l-112 -391 -195 0 c-108 0 -213 -3 -233 -6 -44 -8 -32 20 -166 -379 -128 -381 -126 -371 -102 -395 24 -24 34 -25 53 -5 9 8 66 167 128 352 l112 338 230 2 c127 2 234 6 239 11 4 4 62 195 128 425 66 229 126 431 133 449 17 39 73 97 102 104 20 5 290 -72 409 -116 51 -20 60 -27 78 -66 26 -60 21 -87 -119 -569 -41 -143 -79 -274 -84 -291 -5 -16 -23 -43 -39 -59 l-31 -29 -407 -4 c-225 -2 -412 -8 -418 -13 -10 -8 -199 -562 -238 -696 -13 -47 -13 -54 0 -68 9 -8 20 -15 25 -15 37 0 50 30 160 360 l114 340 384 0 383 0 50 27 c82 45 86 54 218 523 84 301 110 401 110 432 0 50 -32 132 -64 164 -26 26 -63 42 -207 88 -294 93 -320 98 -380 66z m-343 -1008 c-23 -23 -33 -6 -10 19 12 13 20 16 22 9 3 -7 -3 -19 -12 -28z"/> <path d="M2256 1718 c-15 -24 -95 -272 -269 -841 -57 -185 -106 -340 -110 -343 -3 -3 -205 -9 -449 -12 l-443 -7 -3 -36 c-3 -34 -1 -37 29 -43 17 -3 231 -6 475 -6 l444 0 14 22 c19 31 366 1148 381 1231 6 29 3 37 -13 46 -30 16 -40 14 -56 -11z m-336 -1217 c-6 -12 -18 -21 -27 -21 -13 0 -12 5 7 25 27 29 37 27 20 -4z"/> </g> </svg> 